# 3ds Max Wavefront OBJ Exporter v0.97b - (c)2007 guruware
# File Created: 26.01.2019 16:42:38

mtllib Basement fixed.mtl

#
# object Box003
#

v  -95.7071 -90.7071 0.0000
v  95.7071 -90.7071 0.0000
v  95.7071 -90.7071 96.0000
v  -95.7071 -90.7071 96.0000
v  96.7071 -89.7071 0.0000
v  96.7071 89.7071 0.0000
v  96.7071 89.7071 96.0000
v  96.7071 -89.7071 96.0000
v  95.7071 90.7071 0.0000
v  -95.7071 90.7071 0.0000
v  -95.7071 90.7071 96.0000
v  95.7071 90.7071 96.0000
v  -96.7071 89.7071 0.0000
v  -96.7071 -89.7071 0.0000
v  -96.7071 -89.7071 96.0000
v  -96.7071 89.7071 96.0000
v  95.0000 -90.0000 96.0000
v  95.0000 -90.0000 0.0000
v  -95.0000 -90.0000 0.0000
v  -95.0000 -90.0000 96.0000
v  96.0000 89.0000 96.0000
v  96.0000 89.0000 0.0000
v  96.0000 -89.0000 0.0000
v  96.0000 -89.0000 96.0000
v  -95.0000 90.0000 96.0000
v  -95.0000 90.0000 0.0000
v  95.0000 90.0000 0.0000
v  95.0000 90.0000 96.0000
v  -96.0000 -89.0000 96.0000
v  -96.0000 -89.0000 0.0000
v  -96.0000 89.0000 0.0000
v  -96.0000 89.0000 96.0000
v  96.0000 -90.0000 0.0000
v  -96.0000 -90.0000 0.0000
v  -96.7071 -90.7071 0.0000
v  96.7071 -90.7071 0.0000
v  -96.0000 -90.0000 96.0000
v  96.0000 -90.0000 96.0000
v  96.7071 -90.7071 96.0000
v  -96.7071 -90.7071 96.0000
v  96.0000 90.0000 0.0000
v  96.7071 90.7071 0.0000
v  96.0000 90.0000 96.0000
v  96.7071 90.7071 96.0000
v  -96.0000 90.0000 0.0000
v  -96.7071 90.7071 0.0000
v  -96.0000 90.0000 96.0000
v  -96.7071 90.7071 96.0000
v  -97.7002 91.7002 5.1113
v  -97.7004 -91.7004 5.1111
v  -94.3000 -88.3000 5.1114
v  -94.2998 88.2998 5.1113
v  -94.2996 -88.2996 0.3619
v  -94.2998 88.2998 0.3618
v  -97.7000 -91.7000 0.3616
v  -97.7002 91.7002 0.3618
v  97.7006 -91.7006 5.1110
v  94.3002 -88.3002 5.1116
v  94.2994 -88.2994 0.3621
v  97.6998 -91.6998 0.3615
v  97.7008 91.7008 5.1109
v  94.3004 88.3004 5.1117
v  94.2992 88.2992 0.3622
v  97.6996 91.6996 0.3614
v  -99.9386 -94.2810 -1.2208
v  -99.9386 93.2325 -1.2208
v  100.7174 93.2325 -1.2208
v  100.7174 -94.2810 -1.2208
v  -99.9386 -94.2810 1.4565
v  100.7174 -94.2810 1.4565
v  100.7174 93.2325 1.4565
v  -99.9386 93.2325 1.4565
# 72 vertices

vn -0.2971 -0.7173 -0.6303
vn 0.2971 -0.7173 -0.6303
vn 0.2971 -0.7173 0.6303
vn -0.2971 -0.7173 0.6303
vn 0.7173 -0.2971 -0.6303
vn 0.7173 0.2971 -0.6303
vn 0.7173 0.2971 0.6303
vn 0.7173 -0.2971 0.6303
vn 0.2971 0.7173 -0.6303
vn -0.2971 0.7173 -0.6303
vn -0.2971 0.7173 0.6303
vn 0.2971 0.7173 0.6303
vn -0.7173 0.2971 -0.6303
vn -0.7173 -0.2971 -0.6303
vn -0.7173 -0.2971 0.6303
vn -0.7173 0.2971 0.6303
vn -0.2274 0.5491 0.8042
vn -0.2274 0.5491 -0.8042
vn 0.2274 0.5491 -0.8042
vn 0.2274 0.5491 0.8042
vn -0.5491 -0.2274 0.8042
vn -0.5491 -0.2274 -0.8042
vn -0.5491 0.2274 -0.8042
vn -0.5491 0.2274 0.8042
vn 0.2274 -0.5491 0.8042
vn 0.2274 -0.5491 -0.8042
vn -0.2274 -0.5491 -0.8042
vn -0.2274 -0.5491 0.8042
vn 0.5491 0.2274 0.8042
vn 0.5491 0.2274 -0.8042
vn 0.5491 -0.2274 -0.8042
vn 0.5491 -0.2274 0.8042
vn 0.0000 0.0000 -1.0000
vn 0.0000 0.0000 1.0000
vn -0.5774 0.5774 0.5774
vn -0.5774 -0.5774 0.5773
vn 0.3015 0.3015 0.9046
vn 0.3015 -0.3015 0.9045
vn 0.3016 0.3016 -0.9045
vn 0.3015 -0.3015 -0.9045
vn -0.5773 -0.5773 -0.5774
vn -0.5774 0.5774 -0.5774
vn 0.5774 -0.5774 0.5773
vn -0.3014 0.3014 0.9046
vn -0.3017 0.3017 -0.9044
vn 0.5773 -0.5773 -0.5774
vn 0.5774 0.5774 0.5772
vn -0.3013 -0.3013 0.9047
vn -0.3017 -0.3017 -0.9044
vn 0.5773 0.5773 -0.5775
vn -0.5774 -0.5774 -0.5774
vn 0.5774 0.5774 -0.5774
vn 0.5774 -0.5774 -0.5774
vn -0.5774 -0.5774 0.5774
vn 0.5774 -0.5774 0.5774
vn 0.5774 0.5774 0.5774
# 56 vertex normals

vt 0.0052 0.0000 0.0000
vt 0.9948 0.0000 0.0000
vt 0.9948 1.0000 0.0000
vt 0.0052 1.0000 0.0000
vt 0.0055 0.0000 0.0000
vt 0.9945 0.0000 0.0000
vt 0.9945 1.0000 0.0000
vt 0.0055 1.0000 0.0000
vt 0.9944 1.0000 0.0000
vt 0.9944 0.0000 0.0000
vt 0.0056 0.0000 0.0000
vt 0.0056 1.0000 0.0000
vt 1.0000 0.0000 0.0000
vt 0.0000 0.0000 0.0000
vt 0.0000 1.0000 0.0000
vt 1.0000 1.0000 0.0000
vt -0.0000 0.0052 0.0000
vt 1.0000 0.0052 0.0000
vt -0.0000 0.0055 0.0000
vt 1.0000 0.0055 0.0000
vt -0.0000 0.9948 0.0000
vt -0.0000 0.9945 0.0000
vt 1.0000 -0.0056 0.0000
vt 1.0000 -0.0052 0.0000
vt 0.0000 1.0052 0.0000
vt 0.0000 1.0056 0.0000
vt -0.0091 -0.0000 0.0000
vt -0.0091 1.0000 0.0000
vt 1.0091 1.0000 0.0000
vt 1.0091 0.0000 0.0000
vt -0.0097 -0.0000 0.0000
vt -0.0097 1.0000 0.0000
vt 0.0195 1.0000 0.0000
vt 0.0195 -0.0000 0.0000
vt 0.9805 0.0000 0.0000
vt 0.9805 1.0000 0.0000
vt 0.0208 1.0000 0.0000
vt 0.0208 -0.0000 0.0000
vt -97.7002 91.7002 2.3748
vt -97.7004 -91.7004 2.3746
vt -94.3000 -88.3000 2.3749
vt -94.2998 88.2998 2.3748
vt -94.2996 -88.2996 -2.3746
vt -94.2998 88.2998 -2.3748
vt -97.7000 -91.7000 -2.3749
vt -97.7002 91.7002 -2.3748
vt 97.7006 -91.7006 2.3745
vt 94.3002 -88.3002 2.3750
vt 94.2994 -88.2994 -2.3745
vt 97.6998 -91.6998 -2.3750
vt 97.7008 91.7008 2.3743
vt 94.3004 88.3004 2.3752
vt 94.2992 88.2992 -2.3743
vt 97.6996 91.6996 -2.3752
# 54 texture coords

o Box003
g Box003
usemtl wire_027177088
s 1
f 1/1/1 2/2/2 3/3/3 4/4/4 
f 5/5/5 6/6/6 7/7/7 8/8/8 
f 9/1/9 10/2/10 11/3/11 12/4/12 
f 13/5/13 14/6/14 15/7/15 16/8/16 
f 17/3/17 18/2/18 19/1/19 20/4/20 
f 21/9/21 22/10/22 23/11/23 24/12/24 
f 25/3/25 26/2/26 27/1/27 28/4/28 
f 29/9/29 30/10/30 31/11/31 32/12/32 
s 2
f 33/13/33 2/2/2 1/1/1 34/14/33 35/14/33 19/1/19 18/2/18 36/13/33 
f 37/15/34 4/4/4 3/3/3 38/16/34 39/16/34 17/3/17 20/4/20 40/15/34 
f 41/13/33 6/6/6 5/5/5 33/14/33 36/14/33 23/11/23 22/10/22 42/13/33 
f 38/15/34 8/8/8 7/7/7 43/16/34 44/16/34 21/9/21 24/12/24 39/15/34 
f 45/13/33 10/2/10 9/1/9 41/14/33 42/14/33 27/1/27 26/2/26 46/13/33 
f 43/15/34 12/4/12 11/3/11 47/16/34 48/16/34 25/3/25 28/4/28 44/15/34 
f 34/13/33 14/6/14 13/5/13 45/14/33 46/14/33 31/11/31 30/10/30 35/13/33 
f 47/15/34 16/8/16 15/7/15 37/16/34 40/16/34 29/9/29 32/12/32 48/15/34 
f 1/1/1 14/17/14 34/14/33 
f 2/2/2 33/13/33 5/18/5 
f 13/5/13 10/19/10 45/14/33 
f 6/6/6 41/13/33 9/20/9 
f 4/4/4 37/15/34 15/21/15 
f 8/8/8 38/15/34 3/22/3 
f 16/8/16 47/15/34 11/22/11 
f 12/4/12 43/15/34 7/21/7 
f 35/13/33 30/10/30 19/23/19 
f 36/13/33 18/2/18 23/24/23 
f 46/13/33 26/2/26 31/24/31 
f 42/13/33 22/10/22 27/23/27 
f 40/15/34 20/4/20 29/25/29 
f 39/15/34 24/12/24 17/26/17 
f 48/15/34 32/12/32 25/26/25 
f 44/15/34 28/4/28 21/25/21 
s 4
f 2/27/2 5/5/5 8/8/8 3/28/3 
f 4/29/4 15/7/15 14/6/14 1/30/1 
f 6/31/6 9/1/9 12/4/12 7/32/7 
f 10/27/10 13/5/13 16/8/16 11/28/11 
f 17/33/17 24/12/24 23/11/23 18/34/18 
f 19/35/19 30/10/30 29/9/29 20/36/20 
f 21/37/21 28/4/28 27/1/27 22/38/22 
f 25/33/25 32/12/32 31/11/31 26/34/26 
s 1
f 49/39/35 50/40/36 51/41/37 52/42/38 
s 2
f 52/42/38 51/41/37 53/43/39 54/44/40 
s 1
f 54/44/40 53/43/39 55/45/41 56/46/42 
s 2
f 56/46/42 55/45/41 50/40/36 49/39/35 
s 1
f 50/40/36 57/47/43 58/48/44 51/41/37 
s 4
f 51/41/37 58/48/44 59/49/45 53/43/39 
s 1
f 53/43/39 59/49/45 60/50/46 55/45/41 
s 4
f 55/45/41 60/50/46 57/47/43 50/40/36 
s 1
f 57/47/43 61/51/47 62/52/48 58/48/44 
s 2
f 58/48/44 62/52/48 63/53/49 59/49/45 
s 1
f 59/49/45 63/53/49 64/54/50 60/50/46 
s 2
f 60/50/46 64/54/50 61/51/47 57/47/43 
s 1
f 61/51/47 49/39/35 52/42/38 62/52/48 
s 4
f 62/52/48 52/42/38 54/44/40 63/53/49 
s 1
f 63/53/49 54/44/40 56/46/42 64/54/50 
s 4
f 64/54/50 56/46/42 49/39/35 61/51/47 
s 2
f 65/13/51 66/16/42 67/15/52 68/14/53 
s 4
f 69/14/54 70/13/55 71/16/56 72/15/35 
s 8
f 65/14/51 68/13/53 70/16/55 69/15/54 
s 16
f 68/14/53 67/13/52 71/16/56 70/15/55 
s 32
f 67/14/52 66/13/42 72/16/35 71/15/56 
s 64
f 66/14/42 65/13/51 69/16/54 72/15/35 
# 46 polygons - 16 triangles

#
# object Box005
#

v  -99.9386 -94.2810 95.7153
v  -99.9386 93.2325 95.7153
v  100.7174 93.2325 95.7153
v  100.7174 -94.2810 95.7153
v  -99.9386 -94.2810 98.3925
v  100.7174 -94.2810 98.3925
v  100.7174 93.2325 98.3925
v  -99.9386 93.2325 98.3925
# 8 vertices

vn -0.5774 -0.5774 -0.5774
vn -0.5774 0.5774 -0.5774
vn 0.5774 0.5774 -0.5774
vn 0.5774 -0.5774 -0.5774
vn -0.5774 -0.5774 0.5774
vn 0.5774 -0.5774 0.5774
vn 0.5774 0.5774 0.5774
vn -0.5774 0.5774 0.5774
# 8 vertex normals

vt 1.0000 0.0000 0.0000
vt 1.0000 1.0000 0.0000
vt 0.0000 1.0000 0.0000
vt 0.0000 0.0000 0.0000
# 4 texture coords

o Box005
g Box005
usemtl wire_086086086
s 2
f 73/55/57 74/56/58 75/57/59 76/58/60 
s 4
f 77/58/61 78/55/62 79/56/63 80/57/64 
s 8
f 73/58/57 76/55/60 78/56/62 77/57/61 
s 16
f 76/58/60 75/55/59 79/56/63 78/57/62 
s 32
f 75/58/59 74/55/58 80/56/64 79/57/63 
s 64
f 74/58/58 73/55/57 77/56/61 80/57/64 
# 6 polygons

