# 3ds Max Wavefront OBJ Exporter v0.97b - (c)2007 guruware
# File Created: 25.01.2019 21:06:30

mtllib OBJ_Book001.mtl

#
# object book000
#

v  -22.9132 32.7916 95.9063
v  -22.9132 32.7916 88.0413
v  -22.7571 32.9801 88.0314
v  -22.8056 32.9801 95.6310
v  -22.9132 45.4074 95.9063
v  -22.8056 45.1558 95.6310
v  -22.8231 45.1558 87.8997
v  -22.9132 45.4074 88.0413
v  -20.8719 32.7916 95.9063
v  -20.8719 32.7916 88.0413
v  -20.8719 45.4074 88.0413
v  -20.8719 45.4074 95.9063
v  -21.2744 32.7916 87.7458
v  -21.2744 45.4074 87.7458
v  -21.2045 32.7916 87.7483
v  -21.1413 32.7916 87.7556
v  -21.0848 32.7916 87.7678
v  -21.0349 32.7916 87.7849
v  -20.9916 32.7916 87.8069
v  -20.9550 32.7916 87.8337
v  -20.9251 32.7916 87.8655
v  -20.9018 32.7916 87.9021
v  -20.8852 32.7916 87.9436
v  -20.8752 32.7916 87.9900
v  -21.0951 32.9801 88.0314
v  -21.0465 45.1558 95.6310
v  -21.0290 45.1558 87.8997
v  -21.0465 32.9801 95.6310
v  -22.5778 32.7916 87.7458
v  -22.5778 45.4074 87.7458
v  -22.9105 32.7916 87.9900
v  -22.9022 32.7916 87.9436
v  -22.8883 32.7916 87.9021
v  -22.8689 32.7916 87.8655
v  -22.8439 32.7916 87.8337
v  -22.8134 32.7916 87.8069
v  -22.7774 32.7916 87.7849
v  -22.7358 32.7916 87.7678
v  -22.6887 32.7916 87.7556
v  -22.6360 32.7916 87.7483
v  -22.6360 45.4074 87.7483
v  -22.6887 45.4074 87.7556
v  -22.7358 45.4074 87.7678
v  -22.7774 45.4074 87.7849
v  -22.8134 45.4074 87.8069
v  -22.8439 45.4074 87.8337
v  -22.8689 45.4074 87.8655
v  -22.8883 45.4074 87.9021
v  -22.9022 45.4074 87.9436
v  -22.9105 45.4074 87.9900
v  -20.8752 45.4074 87.9900
v  -20.8852 45.4074 87.9436
v  -20.9018 45.4074 87.9021
v  -20.9251 45.4074 87.8655
v  -20.9550 45.4074 87.8337
v  -20.9916 45.4074 87.8069
v  -21.0349 45.4074 87.7849
v  -21.0848 45.4074 87.7678
v  -21.1413 45.4074 87.7556
v  -21.2045 45.4074 87.7483
# 60 vertices

vn -0.1357 -0.6658 0.7337
vn -0.3055 -0.7738 -0.5548
vn 0.3861 -0.8556 0.3448
vn 0.7165 -0.5319 0.4512
vn -0.1216 0.6935 0.7101
vn 0.7479 0.4803 0.4582
vn 0.5539 0.6270 0.5478
vn 0.4855 0.3380 -0.8063
vn 0.2061 -0.6597 0.7227
vn 0.3520 -0.7808 -0.5162
vn -0.0102 0.9910 -0.1333
vn 0.1868 0.6868 0.7024
vn 0.8435 0.5370 0.0123
vn 0.0000 -0.8806 -0.4739
vn 0.0000 0.9626 -0.2710
vn 0.8435 -0.5370 0.0123
vn -0.5975 -0.5740 0.5599
vn -0.5975 0.5740 0.5599
vn 0.0447 -0.6996 -0.7131
vn 0.0977 -0.6980 -0.7094
vn 0.1620 -0.6960 -0.6995
vn 0.2393 -0.6936 -0.6794
vn 0.3299 -0.6909 -0.6433
vn 0.4306 -0.6880 -0.5842
vn 0.5322 -0.6858 -0.4964
vn 0.6208 -0.6849 -0.3814
vn 0.6834 -0.6857 -0.2504
vn 0.7159 -0.6879 -0.1196
vn 0.5524 0.5816 -0.5972
vn -0.3098 -0.8878 0.3405
vn -0.6392 0.5555 0.5318
vn -0.4788 0.6762 0.5599
vn -0.5947 -0.6098 0.5239
vn 1.0000 0.0000 -0.0000
vn 0.5918 -0.7548 -0.2830
vn -0.0124 -0.7032 -0.7109
vn -0.0124 0.7032 -0.7109
vn -0.7160 -0.6909 -0.0999
vn -0.6934 -0.6885 -0.2124
vn -0.6464 -0.6868 -0.3322
vn -0.5734 -0.6864 -0.4473
vn -0.4804 -0.6873 -0.5448
vn -0.3790 -0.6893 -0.6174
vn -0.2807 -0.6917 -0.6654
vn -0.1925 -0.6942 -0.6936
vn -0.1169 -0.6964 -0.7081
vn -0.0536 -0.6982 -0.7139
vn -0.0536 0.6982 -0.7139
vn -0.1169 0.6964 -0.7081
vn -0.1925 0.6942 -0.6936
vn -0.2807 0.6917 -0.6654
vn -0.3790 0.6893 -0.6174
vn -0.4804 0.6873 -0.5448
vn -0.5734 0.6864 -0.4473
vn -0.6464 0.6868 -0.3322
vn -0.6934 0.6885 -0.2124
vn -0.7160 0.6909 -0.0999
vn 0.5524 -0.5816 -0.5972
vn 0.7159 0.6879 -0.1196
vn 0.6834 0.6857 -0.2504
vn 0.6208 0.6849 -0.3814
vn 0.5322 0.6858 -0.4964
vn 0.4306 0.6880 -0.5842
vn 0.3299 0.6909 -0.6433
vn 0.2393 0.6936 -0.6794
vn 0.1620 0.6960 -0.6995
vn 0.0977 0.6980 -0.7094
vn 0.0447 0.6996 -0.7131
# 68 vertex normals

vt 1.0000 0.0000 0.0000
vt 1.0000 0.9638 0.0000
vt 0.8357 0.9638 0.0000
vt 0.8357 0.0000 0.0000
vt 0.0000 0.0000 0.0000
vt 0.1643 0.0000 0.0000
vt 0.1643 0.9638 0.0000
vt 0.0000 0.9638 0.0000
vt 0.1643 1.0000 0.0000
vt 0.0000 1.0000 0.0000
vt 0.9638 0.0000 0.0000
vt 0.9638 1.0000 0.0000
vt 0.1972 0.0000 0.0000
vt 0.1972 1.0000 0.0000
vt 0.0362 0.0000 0.0000
vt 0.0362 1.0000 0.0000
vt 0.1630 0.9997 0.0000
vt 0.1320 0.9988 0.0000
vt 0.1043 0.9973 0.0000
vt 0.0798 0.9952 0.0000
vt 0.0587 0.9925 0.0000
vt 0.0407 0.9892 0.0000
vt 0.0261 0.9853 0.0000
vt 0.0147 0.9808 0.0000
vt 0.0065 0.9758 0.0000
vt 0.0016 0.9701 0.0000
vt 0.1972 0.9638 0.0000
vt 0.8028 0.0000 0.0000
vt 0.8028 0.9638 0.0000
vt 1.0000 1.0000 0.0000
vt 0.8028 1.0000 0.0000
vt 0.8357 1.0000 0.0000
vt 0.9986 0.9701 0.0000
vt 0.9946 0.9758 0.0000
vt 0.9878 0.9808 0.0000
vt 0.9783 0.9853 0.0000
vt 0.9660 0.9892 0.0000
vt 0.9511 0.9925 0.0000
vt 0.9334 0.9952 0.0000
vt 0.9131 0.9973 0.0000
vt 0.8900 0.9988 0.0000
vt 0.8642 0.9997 0.0000
vt 0.1358 0.9997 0.0000
vt 0.1100 0.9988 0.0000
vt 0.0869 0.9973 0.0000
vt 0.0666 0.9952 0.0000
vt 0.0489 0.9925 0.0000
vt 0.0340 0.9892 0.0000
vt 0.0217 0.9853 0.0000
vt 0.0122 0.9808 0.0000
vt 0.0054 0.9758 0.0000
vt 0.0014 0.9701 0.0000
vt 0.9984 0.9701 0.0000
vt 0.9935 0.9758 0.0000
vt 0.9853 0.9808 0.0000
vt 0.9739 0.9853 0.0000
vt 0.9593 0.9892 0.0000
vt 0.9413 0.9925 0.0000
vt 0.9202 0.9952 0.0000
vt 0.8957 0.9973 0.0000
vt 0.8680 0.9988 0.0000
vt 0.8370 0.9997 0.0000
vt 0.1522 -0.0000 0.0000
vt 0.1563 -0.0000 0.0000
vt 0.1563 1.0000 0.0000
vt 0.1522 1.0000 0.0000
vt -0.0034 -0.0000 0.0000
vt 0.0002 -0.0000 0.0000
vt 0.0002 1.0000 0.0000
vt -0.0034 1.0000 0.0000
vt 0.1604 -0.0000 0.0000
vt 0.1604 1.0000 0.0000
vt 0.1645 -0.0000 0.0000
vt 0.1645 1.0000 0.0000
vt 0.1686 -0.0000 0.0000
vt 0.1686 1.0000 0.0000
vt 0.1726 -0.0000 0.0000
vt 0.1726 1.0000 0.0000
vt 0.1767 -0.0000 0.0000
vt 0.1767 1.0000 0.0000
vt 0.1808 -0.0000 0.0000
vt 0.1808 1.0000 0.0000
vt 0.1849 -0.0000 0.0000
vt 0.1849 1.0000 0.0000
vt 0.1890 -0.0000 0.0000
vt 0.1890 1.0000 0.0000
vt 0.1931 -0.0000 0.0000
vt 0.1931 1.0000 0.0000
vt 0.0038 -0.0000 0.0000
vt 0.0038 1.0000 0.0000
vt 0.0074 -0.0000 0.0000
vt 0.0074 1.0000 0.0000
vt 0.0110 -0.0000 0.0000
vt 0.0110 1.0000 0.0000
vt 0.0146 -0.0000 0.0000
vt 0.0146 1.0000 0.0000
vt 0.0182 -0.0000 0.0000
vt 0.0182 1.0000 0.0000
vt 0.0218 -0.0000 0.0000
vt 0.0218 1.0000 0.0000
vt 0.0254 -0.0000 0.0000
vt 0.0254 1.0000 0.0000
vt 0.0290 -0.0000 0.0000
vt 0.0290 1.0000 0.0000
vt 0.0326 -0.0000 0.0000
vt 0.0326 1.0000 0.0000
# 106 texture coords

o book000
g book000
usemtl 19___book_outer
s 1
f 1/1/1 2/2/2 3/3/3 4/4/4 
f 5/5/5 6/6/6 7/7/7 8/8/8 
s 2
f 1/5/1 4/6/4 6/9/6 5/10/5 
s 1
f 9/5/9 10/11/10 11/12/11 12/10/12 
f 13/13/13 13/13/14 14/14/15 14/14/16 
s 2
f 2/15/17 2/15/2 8/16/8 8/16/18 
s 4
f 13/14/14 13/14/13 15/17/19 16/18/20 17/19/21 18/20/22 19/21/23 20/22/24 21/23/25 22/24/26 23/25/27 24/26/28 10/8/29 10/8/10 25/27/30 
s 2
f 26/28/31 12/1/12 11/2/11 27/29/32 
s 4
f 28/28/33 9/1/9 12/30/12 26/31/31 
s 2
f 13/13/14 29/4/34 30/32/35 14/14/15 
s 4
f 29/32/34 13/14/14 25/27/30 3/3/3 
usemtl 20___paper
s 8
f 6/6/6 26/28/31 27/29/32 7/7/7 
usemtl 19___book_outer
s 16
f 4/6/4 28/28/33 26/31/31 6/9/6 
s 1
f 29/4/34 29/4/36 30/32/37 30/32/35 
s 4
f 2/2/2 2/2/17 31/33/38 32/34/39 33/35/40 34/36/41 35/37/42 36/38/43 37/39/44 38/40/45 39/41/46 40/42/47 29/32/36 29/32/34 3/3/3 
f 7/7/7 30/9/35 30/9/37 41/43/48 42/44/49 43/45/50 44/46/51 45/47/52 46/48/53 47/49/54 48/50/55 49/51/56 50/52/57 8/8/18 8/8/8 
s 8
f 10/11/10 10/11/29 11/12/58 11/12/11 
f 2/15/2 1/1/1 5/30/5 8/16/8 
s 2
f 10/8/10 9/5/9 28/13/33 25/27/30 
s 16
f 11/2/11 11/2/58 51/53/59 52/54/60 53/55/61 54/56/62 55/57/63 56/58/64 57/59/65 58/60/66 59/61/67 60/62/68 14/31/16 14/31/15 27/29/32 
s 8
f 25/27/30 28/13/33 4/4/4 3/3/3 
s 16
f 27/29/32 14/31/15 30/9/35 7/7/7 
s 2
f 10/63/29 24/64/28 51/65/59 11/66/58 
s 8
f 29/67/36 40/68/47 41/69/48 30/70/37 
s 2
f 24/64/28 23/71/27 52/72/60 51/65/59 
f 23/71/27 22/73/26 53/74/61 52/72/60 
f 22/73/26 21/75/25 54/76/62 53/74/61 
f 21/75/25 20/77/24 55/78/63 54/76/62 
f 20/77/24 19/79/23 56/80/64 55/78/63 
f 19/79/23 18/81/22 57/82/65 56/80/64 
f 18/81/22 17/83/21 58/84/66 57/82/65 
f 17/83/21 16/85/20 59/86/67 58/84/66 
f 16/85/20 15/87/19 60/88/68 59/86/67 
f 15/87/19 13/13/13 14/14/16 60/88/68 
s 8
f 40/68/47 39/89/46 42/90/49 41/69/48 
f 39/89/46 38/91/45 43/92/50 42/90/49 
f 38/91/45 37/93/44 44/94/51 43/92/50 
f 37/93/44 36/95/43 45/96/52 44/94/51 
f 36/95/43 35/97/42 46/98/53 45/96/52 
f 35/97/42 34/99/41 47/100/54 46/98/53 
f 34/99/41 33/101/40 48/102/55 47/100/54 
f 33/101/40 32/103/39 49/104/56 48/102/55 
f 32/103/39 31/105/38 50/106/57 49/104/56 
f 31/105/38 2/15/17 8/16/18 50/106/57 
# 44 polygons

