# 3ds Max Wavefront OBJ Exporter v0.97b - (c)2007 guruware
# File Created: 25.01.2019 21:06:48

mtllib OBJ_Book002.mtl

#
# object book002
#

v  -31.3563 32.9818 95.9063
v  -31.3563 32.9818 88.0413
v  -31.2167 33.1127 88.0314
v  -31.2464 33.1211 95.6310
v  -28.3989 43.5410 95.9063
v  -28.3921 43.3119 95.6310
v  -28.4028 43.3149 87.8997
v  -28.3989 43.5410 88.0413
v  -30.1082 32.6322 95.9063
v  -30.1082 32.6322 88.0413
v  -27.1508 43.1914 88.0413
v  -27.1508 43.1914 95.9063
v  -30.3543 32.7011 87.7458
v  -27.3969 43.2603 87.7458
v  -30.3116 32.6891 87.7483
v  -30.2730 32.6783 87.7556
v  -30.2384 32.6686 87.7678
v  -30.2079 32.6601 87.7849
v  -30.1814 32.6527 87.8069
v  -30.1591 32.6464 87.8337
v  -30.1408 32.6413 87.8655
v  -30.1265 32.6373 87.9021
v  -30.1164 32.6345 87.9436
v  -30.1103 32.6327 87.9900
v  -30.2005 32.8281 88.0314
v  -27.3165 43.0107 95.6310
v  -27.3058 43.0077 87.8997
v  -30.1708 32.8198 95.6310
v  -31.1512 32.9243 87.7458
v  -28.1937 43.4835 87.7458
v  -31.3546 32.9813 87.9900
v  -31.3496 32.9799 87.9436
v  -31.3411 32.9775 87.9021
v  -31.3292 32.9742 87.8655
v  -31.3140 32.9699 87.8337
v  -31.2953 32.9647 87.8069
v  -31.2733 32.9585 87.7849
v  -31.2478 32.9514 87.7678
v  -31.2190 32.9433 87.7556
v  -31.1868 32.9343 87.7483
v  -28.2293 43.4935 87.7483
v  -28.2615 43.5025 87.7556
v  -28.2904 43.5106 87.7678
v  -28.3158 43.5177 87.7849
v  -28.3378 43.5239 87.8069
v  -28.3565 43.5291 87.8337
v  -28.3717 43.5334 87.8655
v  -28.3836 43.5367 87.9021
v  -28.3921 43.5391 87.9436
v  -28.3972 43.5405 87.9900
v  -27.1528 43.1920 87.9900
v  -27.1589 43.1937 87.9436
v  -27.1691 43.1965 87.9021
v  -27.1833 43.2005 87.8655
v  -27.2016 43.2056 87.8337
v  -27.2240 43.2119 87.8069
v  -27.2504 43.2193 87.7849
v  -27.2809 43.2278 87.7678
v  -27.3155 43.2375 87.7556
v  -27.3541 43.2483 87.7483
# 60 vertices

vn -0.3102 -0.6046 0.7337
vn -0.5029 -0.6627 -0.5548
vn 0.1410 -0.9280 0.3448
vn 0.5465 -0.7055 0.4512
vn 0.0700 0.7006 0.7101
vn 0.8497 0.2608 0.4582
vn 0.7025 0.4543 0.5478
vn 0.5586 0.1945 -0.8063
vn 0.0205 -0.6909 0.7227
vn 0.1283 -0.8468 -0.5162
vn 0.2574 0.9570 -0.1333
vn 0.3651 0.6110 0.7024
vn 0.9571 0.2897 0.0123
vn -0.2375 -0.8479 -0.4739
vn 0.2596 0.9269 -0.2710
vn 0.6674 -0.7446 0.0123
vn -0.7302 -0.3916 0.5599
vn -0.4205 0.7139 0.5599
vn -0.1457 -0.6858 -0.7131
vn -0.0942 -0.6985 -0.7094
vn -0.0318 -0.7139 -0.6995
vn 0.0433 -0.7325 -0.6794
vn 0.1314 -0.7542 -0.6433
vn 0.2291 -0.7786 -0.5842
vn 0.3276 -0.8039 -0.4964
vn 0.4131 -0.8270 -0.3814
vn 0.4732 -0.8447 -0.2504
vn 0.5038 -0.8555 -0.1196
vn 0.6888 0.4110 -0.5972
vn -0.5378 -0.7713 0.3405
vn -0.4657 0.7073 0.5318
vn -0.2787 0.7803 0.5599
vn -0.7372 -0.4268 0.5239
vn 0.9629 -0.2697 -0.0000
vn 0.3663 -0.8864 -0.2830
vn -0.2016 -0.6738 -0.7109
vn 0.1777 0.6805 -0.7109
vn -0.8758 -0.4722 -0.0999
vn -0.8534 -0.4760 -0.2124
vn -0.8077 -0.4870 -0.3322
vn -0.7373 -0.5063 -0.4473
vn -0.6480 -0.5323 -0.5448
vn -0.5509 -0.5615 -0.6174
vn -0.4569 -0.5904 -0.6654
vn -0.3726 -0.6165 -0.6936
vn -0.3004 -0.6390 -0.7081
vn -0.2399 -0.6579 -0.7139
vn 0.1367 0.6868 -0.7139
vn 0.0752 0.7021 -0.7081
vn 0.0019 0.7204 -0.6936
vn -0.0838 0.7417 -0.6654
vn -0.1791 0.7660 -0.6174
vn -0.2772 0.7914 -0.5448
vn -0.3671 0.8156 -0.4473
vn -0.4372 0.8357 -0.3322
vn -0.4820 0.8500 -0.2124
vn -0.5031 0.8584 -0.0999
vn 0.3751 -0.7090 -0.5972
vn 0.8749 0.4694 -0.1196
vn 0.8431 0.4760 -0.2504
vn 0.7825 0.4921 -0.3814
vn 0.6975 0.5168 -0.4964
vn 0.6002 0.5464 -0.5842
vn 0.5040 0.5763 -0.6433
vn 0.4175 0.6034 -0.6794
vn 0.3437 0.6266 -0.6995
vn 0.2823 0.6458 -0.7094
vn 0.2317 0.6617 -0.7131
# 68 vertex normals

vt 1.0000 0.0000 0.0000
vt 1.0000 0.9638 0.0000
vt 0.8357 0.9638 0.0000
vt 0.8357 0.0000 0.0000
vt 0.0000 0.0000 0.0000
vt 0.1643 0.0000 0.0000
vt 0.1643 0.9638 0.0000
vt 0.0000 0.9638 0.0000
vt 0.1643 1.0000 0.0000
vt 0.0000 1.0000 0.0000
vt 0.9638 0.0000 0.0000
vt 0.9638 1.0000 0.0000
vt 0.1972 0.0000 0.0000
vt 0.1972 1.0000 0.0000
vt 0.0362 0.0000 0.0000
vt 0.0362 1.0000 0.0000
vt 0.1630 0.9997 0.0000
vt 0.1320 0.9988 0.0000
vt 0.1043 0.9973 0.0000
vt 0.0798 0.9952 0.0000
vt 0.0587 0.9925 0.0000
vt 0.0407 0.9892 0.0000
vt 0.0261 0.9853 0.0000
vt 0.0147 0.9808 0.0000
vt 0.0065 0.9758 0.0000
vt 0.0016 0.9701 0.0000
vt 0.1972 0.9638 0.0000
vt 0.8028 0.0000 0.0000
vt 0.8028 0.9638 0.0000
vt 1.0000 1.0000 0.0000
vt 0.8028 1.0000 0.0000
vt 0.8357 1.0000 0.0000
vt 0.9986 0.9701 0.0000
vt 0.9946 0.9758 0.0000
vt 0.9878 0.9808 0.0000
vt 0.9783 0.9853 0.0000
vt 0.9660 0.9892 0.0000
vt 0.9511 0.9925 0.0000
vt 0.9334 0.9952 0.0000
vt 0.9131 0.9973 0.0000
vt 0.8900 0.9988 0.0000
vt 0.8642 0.9997 0.0000
vt 0.1358 0.9997 0.0000
vt 0.1100 0.9988 0.0000
vt 0.0869 0.9973 0.0000
vt 0.0666 0.9952 0.0000
vt 0.0489 0.9925 0.0000
vt 0.0340 0.9892 0.0000
vt 0.0217 0.9853 0.0000
vt 0.0122 0.9808 0.0000
vt 0.0054 0.9758 0.0000
vt 0.0014 0.9701 0.0000
vt 0.9984 0.9701 0.0000
vt 0.9935 0.9758 0.0000
vt 0.9853 0.9808 0.0000
vt 0.9739 0.9853 0.0000
vt 0.9593 0.9892 0.0000
vt 0.9413 0.9925 0.0000
vt 0.9202 0.9952 0.0000
vt 0.8957 0.9973 0.0000
vt 0.8680 0.9988 0.0000
vt 0.8370 0.9997 0.0000
vt 0.1522 -0.0000 0.0000
vt 0.1563 -0.0000 0.0000
vt 0.1563 1.0000 0.0000
vt 0.1522 1.0000 0.0000
vt -0.0034 -0.0000 0.0000
vt 0.0002 -0.0000 0.0000
vt 0.0002 1.0000 0.0000
vt -0.0034 1.0000 0.0000
vt 0.1604 -0.0000 0.0000
vt 0.1604 1.0000 0.0000
vt 0.1645 -0.0000 0.0000
vt 0.1645 1.0000 0.0000
vt 0.1686 -0.0000 0.0000
vt 0.1686 1.0000 0.0000
vt 0.1726 -0.0000 0.0000
vt 0.1726 1.0000 0.0000
vt 0.1767 -0.0000 0.0000
vt 0.1767 1.0000 0.0000
vt 0.1808 -0.0000 0.0000
vt 0.1808 1.0000 0.0000
vt 0.1849 -0.0000 0.0000
vt 0.1849 1.0000 0.0000
vt 0.1890 -0.0000 0.0000
vt 0.1890 1.0000 0.0000
vt 0.1931 -0.0000 0.0000
vt 0.1931 1.0000 0.0000
vt 0.0038 -0.0000 0.0000
vt 0.0038 1.0000 0.0000
vt 0.0074 -0.0000 0.0000
vt 0.0074 1.0000 0.0000
vt 0.0110 -0.0000 0.0000
vt 0.0110 1.0000 0.0000
vt 0.0146 -0.0000 0.0000
vt 0.0146 1.0000 0.0000
vt 0.0182 -0.0000 0.0000
vt 0.0182 1.0000 0.0000
vt 0.0218 -0.0000 0.0000
vt 0.0218 1.0000 0.0000
vt 0.0254 -0.0000 0.0000
vt 0.0254 1.0000 0.0000
vt 0.0290 -0.0000 0.0000
vt 0.0290 1.0000 0.0000
vt 0.0326 -0.0000 0.0000
vt 0.0326 1.0000 0.0000
# 106 texture coords

o book002
g book002
usemtl 19___book_outer
s 1
f 1/1/1 2/2/2 3/3/3 4/4/4 
f 5/5/5 6/6/6 7/7/7 8/8/8 
s 2
f 1/5/1 4/6/4 6/9/6 5/10/5 
s 1
f 9/5/9 10/11/10 11/12/11 12/10/12 
f 13/13/13 13/13/14 14/14/15 14/14/16 
s 2
f 2/15/17 2/15/2 8/16/8 8/16/18 
s 4
f 13/14/14 13/14/13 15/17/19 16/18/20 17/19/21 18/20/22 19/21/23 20/22/24 21/23/25 22/24/26 23/25/27 24/26/28 10/8/29 10/8/10 25/27/30 
s 2
f 26/28/31 12/1/12 11/2/11 27/29/32 
s 4
f 28/28/33 9/1/9 12/30/12 26/31/31 
s 2
f 13/13/14 29/4/34 30/32/35 14/14/15 
s 4
f 29/32/34 13/14/14 25/27/30 3/3/3 
usemtl 20___paper
s 8
f 6/6/6 26/28/31 27/29/32 7/7/7 
usemtl 19___book_outer
s 16
f 4/6/4 28/28/33 26/31/31 6/9/6 
s 1
f 29/4/34 29/4/36 30/32/37 30/32/35 
s 4
f 2/2/2 2/2/17 31/33/38 32/34/39 33/35/40 34/36/41 35/37/42 36/38/43 37/39/44 38/40/45 39/41/46 40/42/47 29/32/36 29/32/34 3/3/3 
f 7/7/7 30/9/35 30/9/37 41/43/48 42/44/49 43/45/50 44/46/51 45/47/52 46/48/53 47/49/54 48/50/55 49/51/56 50/52/57 8/8/18 8/8/8 
s 8
f 10/11/10 10/11/29 11/12/58 11/12/11 
f 2/15/2 1/1/1 5/30/5 8/16/8 
s 2
f 10/8/10 9/5/9 28/13/33 25/27/30 
s 16
f 11/2/11 11/2/58 51/53/59 52/54/60 53/55/61 54/56/62 55/57/63 56/58/64 57/59/65 58/60/66 59/61/67 60/62/68 14/31/16 14/31/15 27/29/32 
s 8
f 25/27/30 28/13/33 4/4/4 3/3/3 
s 16
f 27/29/32 14/31/15 30/9/35 7/7/7 
s 2
f 10/63/29 24/64/28 51/65/59 11/66/58 
s 8
f 29/67/36 40/68/47 41/69/48 30/70/37 
s 2
f 24/64/28 23/71/27 52/72/60 51/65/59 
f 23/71/27 22/73/26 53/74/61 52/72/60 
f 22/73/26 21/75/25 54/76/62 53/74/61 
f 21/75/25 20/77/24 55/78/63 54/76/62 
f 20/77/24 19/79/23 56/80/64 55/78/63 
f 19/79/23 18/81/22 57/82/65 56/80/64 
f 18/81/22 17/83/21 58/84/66 57/82/65 
f 17/83/21 16/85/20 59/86/67 58/84/66 
f 16/85/20 15/87/19 60/88/68 59/86/67 
f 15/87/19 13/13/13 14/14/16 60/88/68 
s 8
f 40/68/47 39/89/46 42/90/49 41/69/48 
f 39/89/46 38/91/45 43/92/50 42/90/49 
f 38/91/45 37/93/44 44/94/51 43/92/50 
f 37/93/44 36/95/43 45/96/52 44/94/51 
f 36/95/43 35/97/42 46/98/53 45/96/52 
f 35/97/42 34/99/41 47/100/54 46/98/53 
f 34/99/41 33/101/40 48/102/55 47/100/54 
f 33/101/40 32/103/39 49/104/56 48/102/55 
f 32/103/39 31/105/38 50/106/57 49/104/56 
f 31/105/38 2/15/17 8/16/18 50/106/57 
# 44 polygons

