# 3ds Max Wavefront OBJ Exporter v0.97b - (c)2007 guruware
# File Created: 25.01.2019 21:07:08

mtllib OBJ_Book003.mtl

#
# object book003
#

v  -34.3984 33.0925 94.6938
v  -34.3984 33.0925 86.8289
v  -34.1581 33.2259 86.8189
v  -34.2137 33.2438 94.4186
v  -30.2824 45.8789 94.6938
v  -30.2413 45.5842 94.4186
v  -30.2613 45.5907 86.6872
v  -30.2824 45.8789 86.8289
v  -32.0606 32.3399 94.6938
v  -32.0606 32.3399 86.8289
v  -27.9446 45.1263 86.8289
v  -27.9446 45.1263 94.6938
v  -32.5215 32.4883 86.5334
v  -28.4055 45.2747 86.5334
v  -32.4415 32.4626 86.5358
v  -32.3692 32.4393 86.5432
v  -32.3044 32.4184 86.5554
v  -32.2473 32.4000 86.5725
v  -32.1977 32.3841 86.5944
v  -32.1558 32.3706 86.6213
v  -32.1215 32.3596 86.6531
v  -32.0949 32.3510 86.6897
v  -32.0758 32.3448 86.7312
v  -32.0644 32.3412 86.7776
v  -32.2547 32.6132 86.8189
v  -28.2267 44.9357 94.4186
v  -28.2066 44.9292 86.6872
v  -32.1991 32.5953 94.4186
v  -34.0142 32.9688 86.5334
v  -29.8982 45.7552 86.5334
v  -34.3952 33.0915 86.7776
v  -34.3857 33.0884 86.7312
v  -34.3698 33.0833 86.6897
v  -34.3476 33.0761 86.6531
v  -34.3190 33.0669 86.6213
v  -34.2841 33.0557 86.5944
v  -34.2428 33.0424 86.5725
v  -34.1952 33.0271 86.5554
v  -34.1412 33.0097 86.5432
v  -34.0809 32.9903 86.5358
v  -29.9649 45.7767 86.5358
v  -30.0252 45.7961 86.5432
v  -30.0792 45.8135 86.5554
v  -30.1268 45.8288 86.5725
v  -30.1681 45.8421 86.5944
v  -30.2030 45.8533 86.6213
v  -30.2316 45.8625 86.6531
v  -30.2538 45.8697 86.6897
v  -30.2697 45.8748 86.7312
v  -30.2792 45.8779 86.7776
v  -27.9484 45.1276 86.7776
v  -27.9598 45.1312 86.7312
v  -27.9789 45.1374 86.6897
v  -28.0055 45.1460 86.6531
v  -28.0398 45.1570 86.6213
v  -28.0817 45.1705 86.5944
v  -28.1313 45.1864 86.5725
v  -28.1884 45.2048 86.5554
v  -28.2532 45.2257 86.5432
v  -28.3255 45.2490 86.5358
# 60 vertices

vn -0.3332 -0.5922 0.7337
vn -0.5280 -0.6430 -0.5548
vn 0.1054 -0.9327 0.3448
vn 0.5191 -0.7259 0.4512
vn 0.0968 0.6974 0.7101
vn 0.8591 0.2280 0.4582
vn 0.7194 0.4271 0.5478
vn 0.5657 0.1730 -0.8063
vn -0.0060 -0.6911 0.7227
vn 0.0958 -0.8511 -0.5162
vn 0.2939 0.9465 -0.1333
vn 0.3883 0.5965 0.7024
vn 0.9675 0.2528 0.0123
vn -0.2698 -0.8382 -0.4739
vn 0.2950 0.9163 -0.2710
vn 0.6383 -0.7697 0.0123
vn -0.7447 -0.3633 0.5599
vn -0.3929 0.7295 0.5599
vn -0.1719 -0.6797 -0.7131
vn -0.1209 -0.6944 -0.7094
vn -0.0591 -0.7122 -0.6995
vn 0.0152 -0.7336 -0.6794
vn 0.1023 -0.7587 -0.6433
vn 0.1991 -0.7869 -0.5842
vn 0.2965 -0.8159 -0.4964
vn 0.3811 -0.8422 -0.3814
vn 0.4404 -0.8622 -0.2504
vn 0.4706 -0.8742 -0.1196
vn 0.7040 0.3843 -0.5972
vn -0.5669 -0.7501 0.3405
vn -0.4382 0.7247 0.5318
vn -0.2486 0.7904 0.5599
vn -0.7530 -0.3982 0.5239
vn 0.9519 -0.3064 -0.0000
vn 0.3320 -0.8998 -0.2830
vn -0.2273 -0.6656 -0.7109
vn 0.2037 0.6732 -0.7109
vn -0.8933 -0.4383 -0.0999
vn -0.8710 -0.4429 -0.2124
vn -0.8258 -0.4557 -0.3322
vn -0.7562 -0.4776 -0.4473
vn -0.6679 -0.5070 -0.5448
vn -0.5720 -0.5400 -0.6174
vn -0.4791 -0.5724 -0.6654
vn -0.3959 -0.6018 -0.6936
vn -0.3246 -0.6270 -0.7081
vn -0.2650 -0.6482 -0.7139
vn 0.1629 0.6810 -0.7139
vn 0.1021 0.6987 -0.7081
vn 0.0295 0.7198 -0.6936
vn -0.0553 0.7444 -0.6654
vn -0.1496 0.7723 -0.6174
vn -0.2467 0.8015 -0.5448
vn -0.3355 0.8291 -0.4473
vn -0.4049 0.8519 -0.3322
vn -0.4491 0.8679 -0.2124
vn -0.4699 0.8771 -0.0999
vn 0.3476 -0.7229 -0.5972
vn 0.8922 0.4355 -0.1196
vn 0.8607 0.4433 -0.2504
vn 0.8008 0.4617 -0.3814
vn 0.7168 0.4897 -0.4964
vn 0.6207 0.5230 -0.5842
vn 0.5257 0.5565 -0.6433
vn 0.4403 0.5870 -0.6794
vn 0.3674 0.6129 -0.6995
vn 0.3069 0.6345 -0.7094
vn 0.2569 0.6523 -0.7131
# 68 vertex normals

vt 1.0000 0.0000 0.0000
vt 1.0000 0.9638 0.0000
vt 0.8357 0.9638 0.0000
vt 0.8357 0.0000 0.0000
vt 0.0000 0.0000 0.0000
vt 0.1643 0.0000 0.0000
vt 0.1643 0.9638 0.0000
vt 0.0000 0.9638 0.0000
vt 0.1643 1.0000 0.0000
vt 0.0000 1.0000 0.0000
vt 0.9638 0.0000 0.0000
vt 0.9638 1.0000 0.0000
vt 0.1972 0.0000 0.0000
vt 0.1972 1.0000 0.0000
vt 0.0362 0.0000 0.0000
vt 0.0362 1.0000 0.0000
vt 0.1630 0.9997 0.0000
vt 0.1320 0.9988 0.0000
vt 0.1043 0.9973 0.0000
vt 0.0798 0.9952 0.0000
vt 0.0587 0.9925 0.0000
vt 0.0407 0.9892 0.0000
vt 0.0261 0.9853 0.0000
vt 0.0147 0.9808 0.0000
vt 0.0065 0.9758 0.0000
vt 0.0016 0.9701 0.0000
vt 0.1972 0.9638 0.0000
vt 0.8028 0.0000 0.0000
vt 0.8028 0.9638 0.0000
vt 1.0000 1.0000 0.0000
vt 0.8028 1.0000 0.0000
vt 0.8357 1.0000 0.0000
vt 0.9986 0.9701 0.0000
vt 0.9946 0.9758 0.0000
vt 0.9878 0.9808 0.0000
vt 0.9783 0.9853 0.0000
vt 0.9660 0.9892 0.0000
vt 0.9511 0.9925 0.0000
vt 0.9334 0.9952 0.0000
vt 0.9131 0.9973 0.0000
vt 0.8900 0.9988 0.0000
vt 0.8642 0.9997 0.0000
vt 0.1358 0.9997 0.0000
vt 0.1100 0.9988 0.0000
vt 0.0869 0.9973 0.0000
vt 0.0666 0.9952 0.0000
vt 0.0489 0.9925 0.0000
vt 0.0340 0.9892 0.0000
vt 0.0217 0.9853 0.0000
vt 0.0122 0.9808 0.0000
vt 0.0054 0.9758 0.0000
vt 0.0014 0.9701 0.0000
vt 0.9984 0.9701 0.0000
vt 0.9935 0.9758 0.0000
vt 0.9853 0.9808 0.0000
vt 0.9739 0.9853 0.0000
vt 0.9593 0.9892 0.0000
vt 0.9413 0.9925 0.0000
vt 0.9202 0.9952 0.0000
vt 0.8957 0.9973 0.0000
vt 0.8680 0.9988 0.0000
vt 0.8370 0.9997 0.0000
vt 0.1522 -0.0000 0.0000
vt 0.1563 -0.0000 0.0000
vt 0.1563 1.0000 0.0000
vt 0.1522 1.0000 0.0000
vt -0.0034 -0.0000 0.0000
vt 0.0002 -0.0000 0.0000
vt 0.0002 1.0000 0.0000
vt -0.0034 1.0000 0.0000
vt 0.1604 -0.0000 0.0000
vt 0.1604 1.0000 0.0000
vt 0.1645 -0.0000 0.0000
vt 0.1645 1.0000 0.0000
vt 0.1686 -0.0000 0.0000
vt 0.1686 1.0000 0.0000
vt 0.1726 -0.0000 0.0000
vt 0.1726 1.0000 0.0000
vt 0.1767 -0.0000 0.0000
vt 0.1767 1.0000 0.0000
vt 0.1808 -0.0000 0.0000
vt 0.1808 1.0000 0.0000
vt 0.1849 -0.0000 0.0000
vt 0.1849 1.0000 0.0000
vt 0.1890 -0.0000 0.0000
vt 0.1890 1.0000 0.0000
vt 0.1931 -0.0000 0.0000
vt 0.1931 1.0000 0.0000
vt 0.0038 -0.0000 0.0000
vt 0.0038 1.0000 0.0000
vt 0.0074 -0.0000 0.0000
vt 0.0074 1.0000 0.0000
vt 0.0110 -0.0000 0.0000
vt 0.0110 1.0000 0.0000
vt 0.0146 -0.0000 0.0000
vt 0.0146 1.0000 0.0000
vt 0.0182 -0.0000 0.0000
vt 0.0182 1.0000 0.0000
vt 0.0218 -0.0000 0.0000
vt 0.0218 1.0000 0.0000
vt 0.0254 -0.0000 0.0000
vt 0.0254 1.0000 0.0000
vt 0.0290 -0.0000 0.0000
vt 0.0290 1.0000 0.0000
vt 0.0326 -0.0000 0.0000
vt 0.0326 1.0000 0.0000
# 106 texture coords

o book003
g book003
usemtl 19___book_outer
s 1
f 1/1/1 2/2/2 3/3/3 4/4/4 
f 5/5/5 6/6/6 7/7/7 8/8/8 
s 2
f 1/5/1 4/6/4 6/9/6 5/10/5 
s 1
f 9/5/9 10/11/10 11/12/11 12/10/12 
f 13/13/13 13/13/14 14/14/15 14/14/16 
s 2
f 2/15/17 2/15/2 8/16/8 8/16/18 
s 4
f 13/14/14 13/14/13 15/17/19 16/18/20 17/19/21 18/20/22 19/21/23 20/22/24 21/23/25 22/24/26 23/25/27 24/26/28 10/8/29 10/8/10 25/27/30 
s 2
f 26/28/31 12/1/12 11/2/11 27/29/32 
s 4
f 28/28/33 9/1/9 12/30/12 26/31/31 
s 2
f 13/13/14 29/4/34 30/32/35 14/14/15 
s 4
f 29/32/34 13/14/14 25/27/30 3/3/3 
usemtl 20___paper
s 8
f 6/6/6 26/28/31 27/29/32 7/7/7 
usemtl 19___book_outer
s 16
f 4/6/4 28/28/33 26/31/31 6/9/6 
s 1
f 29/4/34 29/4/36 30/32/37 30/32/35 
s 4
f 2/2/2 2/2/17 31/33/38 32/34/39 33/35/40 34/36/41 35/37/42 36/38/43 37/39/44 38/40/45 39/41/46 40/42/47 29/32/36 29/32/34 3/3/3 
f 7/7/7 30/9/35 30/9/37 41/43/48 42/44/49 43/45/50 44/46/51 45/47/52 46/48/53 47/49/54 48/50/55 49/51/56 50/52/57 8/8/18 8/8/8 
s 8
f 10/11/10 10/11/29 11/12/58 11/12/11 
f 2/15/2 1/1/1 5/30/5 8/16/8 
s 2
f 10/8/10 9/5/9 28/13/33 25/27/30 
s 16
f 11/2/11 11/2/58 51/53/59 52/54/60 53/55/61 54/56/62 55/57/63 56/58/64 57/59/65 58/60/66 59/61/67 60/62/68 14/31/16 14/31/15 27/29/32 
s 8
f 25/27/30 28/13/33 4/4/4 3/3/3 
s 16
f 27/29/32 14/31/15 30/9/35 7/7/7 
s 2
f 10/63/29 24/64/28 51/65/59 11/66/58 
s 8
f 29/67/36 40/68/47 41/69/48 30/70/37 
s 2
f 24/64/28 23/71/27 52/72/60 51/65/59 
f 23/71/27 22/73/26 53/74/61 52/72/60 
f 22/73/26 21/75/25 54/76/62 53/74/61 
f 21/75/25 20/77/24 55/78/63 54/76/62 
f 20/77/24 19/79/23 56/80/64 55/78/63 
f 19/79/23 18/81/22 57/82/65 56/80/64 
f 18/81/22 17/83/21 58/84/66 57/82/65 
f 17/83/21 16/85/20 59/86/67 58/84/66 
f 16/85/20 15/87/19 60/88/68 59/86/67 
f 15/87/19 13/13/13 14/14/16 60/88/68 
s 8
f 40/68/47 39/89/46 42/90/49 41/69/48 
f 39/89/46 38/91/45 43/92/50 42/90/49 
f 38/91/45 37/93/44 44/94/51 43/92/50 
f 37/93/44 36/95/43 45/96/52 44/94/51 
f 36/95/43 35/97/42 46/98/53 45/96/52 
f 35/97/42 34/99/41 47/100/54 46/98/53 
f 34/99/41 33/101/40 48/102/55 47/100/54 
f 33/101/40 32/103/39 49/104/56 48/102/55 
f 32/103/39 31/105/38 50/106/57 49/104/56 
f 31/105/38 2/15/17 8/16/18 50/106/57 
# 44 polygons

